<?xml version="1.0" encoding="UTF-8" standalone="no"?>
<svg
   xmlns:dc="http://purl.org/dc/elements/1.1/"
   xmlns:cc="http://creativecommons.org/ns#"
   xmlns:rdf="http://www.w3.org/1999/02/22-rdf-syntax-ns#"
   xmlns:svg="http://www.w3.org/2000/svg"
   xmlns="http://www.w3.org/2000/svg"
   xmlns:sodipodi="http://sodipodi.sourceforge.net/DTD/sodipodi-0.dtd"
   xmlns:inkscape="http://www.inkscape.org/namespaces/inkscape"
   width="20"
   height="20"
   viewBox="0 0 20 20"
   fill="none"
   version="1.1"
   id="svg6"
   sodipodi:docname="checkbox-active-checked.svg"
   inkscape:version="1.0.1 (0767f8302a, 2020-10-17)">
  <metadata
     id="metadata12">
    <rdf:RDF>
      <cc:Work
         rdf:about="">
        <dc:format>image/svg+xml</dc:format>
        <dc:type
           rdf:resource="http://purl.org/dc/dcmitype/StillImage" />
        <dc:title></dc:title>
      </cc:Work>
    </rdf:RDF>
  </metadata>
  <defs
     id="defs10" />
  <sodipodi:namedview
     pagecolor="#ffffff"
     bordercolor="#666666"
     borderopacity="1"
     objecttolerance="10"
     gridtolerance="10"
     guidetolerance="10"
     inkscape:pageopacity="0"
     inkscape:pageshadow="2"
     inkscape:window-width="2302"
     inkscape:window-height="1565"
     id="namedview8"
     showgrid="false"
     inkscape:zoom="50.4"
     inkscape:cx="10"
     inkscape:cy="10"
     inkscape:window-x="746"
     inkscape:window-y="269"
     inkscape:window-maximized="0"
     inkscape:current-layer="svg6" />
  <rect
     x="0.5"
     y="0.5"
     width="19"
     height="19"
     rx="1.5"
     stroke="#2196F3"
     id="rect2" />
  <path
     d="M8.28571 14L4 10.1612L5.20857 9.0787L8.28571 11.8273L14.7914 6L16 7.09021L8.28571 14Z"
     fill="#2196F3"
     id="path4" />
  <path
     style="fill:#ffb380;stroke-width:0.0198413"
     d="M 1.8452381,18.976812 C 1.4697732,18.913488 1.1598302,18.640116 1.0481879,18.27381 1.0132899,18.159307 1.0119048,17.843457 1.0119048,10 c 0,-7.8434568 0.00139,-8.1593065 0.036283,-8.2738095 C 1.1459472,1.4054348 1.4184038,1.1350485 1.7305781,1.0489853 1.8609213,1.0130511 2.1165646,1.0119048 10,1.0119048 c 7.883436,0 8.139079,0.00115 8.269422,0.037081 0.312174,0.086063 0.584631,0.3564495 0.68239,0.6772052 0.0349,0.114503 0.03628,0.4303527 0.03628,8.27381 0,7.843456 -0.0014,8.159306 -0.03628,8.273809 -0.09432,0.309482 -0.343075,0.565277 -0.653238,0.671734 l -0.123971,0.04255 -8.115079,0.0027 c -4.4632938,0.0015 -8.1597224,-0.0048 -8.2142859,-0.01401 z M 12.159692,10.546134 c 2.113261,-1.8930782 3.842292,-3.4480852 3.842292,-3.4555709 0,-0.020712 -1.186542,-1.088579 -1.209555,-1.088579 -0.01105,0 -1.475281,1.3035715 -3.253849,2.8968254 -1.7785675,1.5932535 -3.2420742,2.8968255 -3.2522369,2.8968255 -0.010163,0 -0.7032703,-0.611607 -1.5402391,-1.359127 C 5.9091351,9.6889881 5.2172357,9.077381 5.2085494,9.077381 c -0.025876,0 -1.2006129,1.060757 -1.2006129,1.084122 0,0.03207 4.2571046,3.839407 4.2852601,3.832516 0.013312,-0.0033 1.7532354,-1.554806 3.8664954,-3.447885 z"
     id="path86" />
</svg>
